<svg width="39" height="39" viewBox="0 0 39 39" fill="none" xmlns="http://www.w3.org/2000/svg">
<g clip-path="url(#clip0_1202_478)">
<path fill-rule="evenodd" clip-rule="evenodd" d="M35.9975 10.5731C35.6244 9.18045 34.9747 7.86208 34.094 6.72661C33.2131 5.59094 32.1007 4.63838 30.9401 3.93327C29.7796 3.22815 28.5707 2.77089 27.7008 2.53518C26.8314 2.29947 26.3141 2.40103 25.7911 2.40103H13.2629C12.9226 2.40103 12.5837 2.40124 11.7135 2.61732C10.8432 2.83341 9.44334 3.23362 8.19072 3.9187C6.93831 4.60378 5.83339 5.57354 4.9561 6.71771C4.07682 7.8662 3.43128 9.17597 3.05603 10.5729C2.68258 11.9703 2.58676 13.4274 2.77399 14.8616C2.96312 16.2957 3.43209 17.6787 4.15427 18.9321C4.87517 20.1806 5.84493 21.2856 6.99354 22.141C8.14216 22.9964 9.46944 23.6026 10.5432 23.9787C11.6169 24.3547 12.4372 24.5003 13.2625 24.5003H25.7905C26.6156 24.5003 27.436 24.3547 28.5095 23.9787C29.5833 23.6026 30.9106 22.9966 32.0594 22.141C33.2078 21.2854 34.1776 20.1806 34.8987 18.9321C35.6208 17.6787 36.0898 16.2957 36.279 14.8616C36.4668 13.4275 36.3711 11.9704 35.9975 10.5731ZM23.8147 16.1355C23.4578 17.4642 22.8438 18.71 22.0075 19.8025C21.1696 20.8939 20.1256 21.8101 18.9346 22.4991C17.7424 23.1861 16.4269 23.6321 15.0628 23.812C13.6986 23.9901 12.3126 23.899 10.9835 23.5437C9.65479 23.1868 8.40902 22.5727 7.31666 21.7363C6.22527 20.8985 5.30911 19.8544 4.62023 18.6634C3.93321 17.4713 3.48712 16.1557 3.30732 14.7916C3.12867 13.4318 3.22053 12.0367 3.57561 10.7121C3.9307 9.38743 4.54841 8.1336 5.38281 7.04528C6.22064 5.95383 7.26473 5.0376 8.45577 4.34865C9.64785 3.66165 10.9633 3.2155 12.3273 3.03554C13.6916 2.85743 15.0775 2.94858 16.4067 3.30382C17.7354 3.66079 18.9812 4.27484 20.0737 5.11122C21.162 5.94583 22.0846 6.99652 22.7703 8.18419C23.456 9.37185 23.9044 10.6963 24.083 12.0561C24.2617 13.416 24.1696 14.8108 23.8147 16.1355Z" fill="url(#paint0_linear_1202_478)"/>
<path fill-rule="evenodd" clip-rule="evenodd" d="M9.57194 9.6053C9.10443 10.1182 8.73579 10.7131 8.48463 11.3601C8.23377 12.0073 8.10481 12.6953 8.10425 13.3894C8.10425 14.0814 8.23435 14.7734 8.48463 15.4188C8.73491 16.064 9.10537 16.6625 9.57194 17.1736C10.0385 17.6847 10.6008 18.1079 11.2197 18.4175V8.36139C10.599 8.67184 10.0406 9.09345 9.57194 9.6053ZM17.8407 9.57596C17.3639 9.06253 16.7962 8.64181 16.1662 8.33508V18.4438C16.7961 18.137 17.3639 17.7163 17.8407 17.2029C18.3164 16.6885 18.6919 16.0897 18.9478 15.4374C19.2034 14.7848 19.3348 14.0903 19.3355 13.3894C19.3355 12.6906 19.203 11.9922 18.9478 11.3415C18.6919 10.6892 18.3164 10.0904 17.8407 9.57596Z" fill="url(#paint1_linear_1202_478)"/>
<path fill-rule="evenodd" clip-rule="evenodd" d="M8.7895 27.7443C8.50564 27.4153 8.08115 27.2965 7.67467 27.2965H6.56288V30.8456H7.67467C8.10523 30.8456 8.54347 30.66 8.82511 30.3349C9.10676 30.0095 9.23179 29.544 9.2235 29.0598C9.2152 28.5756 9.07337 28.0731 8.7895 27.7443ZM8.29481 29.8076C8.1374 29.9885 7.89238 30.0909 7.65181 30.0909H7.33416V28.1194H7.65181C7.87903 28.1194 8.11616 28.1849 8.27498 28.3678C8.43381 28.5503 8.51312 28.83 8.51778 29.0989C8.52243 29.368 8.45222 29.6269 8.29481 29.8076ZM10.413 30.8456V27.2965H9.6581V30.8456H10.413ZM12.9255 29.5306V27.2965H13.6804V30.8456H12.8395L11.72 28.6452V30.8456H10.9651V27.2965H11.7888L12.9255 29.5306ZM15.9774 30.0828L15.9807 30.8508H14.1405V27.3081H15.9807L15.9774 28.0518H14.9014V28.6896H15.9774V29.4446L14.9014 29.4444V30.0828H15.9774ZM17.223 30.8456H16.5025L16.4992 27.2965H17.7316C17.9076 27.2965 18.0847 27.3344 18.2629 27.4456C18.4412 27.5569 18.6208 27.7331 18.7089 27.9727C18.7969 28.2125 18.7934 28.5158 18.741 28.7494C18.6886 28.9831 18.5873 29.1476 18.463 29.281C18.3425 29.4116 18.1948 29.5144 18.0304 29.582L18.9079 30.8484H18.1187L17.3733 29.7841L17.2228 29.7811V30.8456H17.223ZM17.223 28.8959H17.7174C17.8362 28.8959 17.9528 28.8223 18.0108 28.6871C18.0691 28.5518 18.0689 28.3521 18.011 28.2157C17.953 28.0791 17.8374 28 17.7174 28H17.223V28.8959ZM20.8817 28.3569C20.9019 28.1115 20.8527 27.8554 20.7536 27.6652C20.654 27.475 20.5043 27.3505 20.3058 27.2862C20.1075 27.2223 19.8609 27.2178 19.644 27.2996C19.4228 27.3842 19.2414 27.5488 19.1358 27.7609C19.0314 27.9729 19.0091 28.2291 19.0376 28.4445C19.0664 28.6598 19.1457 28.8346 19.276 28.9807C19.4063 29.1272 19.5872 29.2453 19.7693 29.3182C19.9518 29.391 20.1357 29.4189 20.2605 29.5005C20.3849 29.582 20.4505 29.7174 20.4123 29.8511C20.374 29.9847 20.2312 30.1168 20.0707 30.1427C19.9103 30.1688 19.7312 30.0884 19.628 29.9976C19.5252 29.907 19.4981 29.8056 19.5228 29.7152H18.9211C18.9027 29.9138 18.9389 30.1194 19.0243 30.2902C19.109 30.4562 19.2386 30.5953 19.3982 30.6916C19.552 30.7859 19.7247 30.8385 19.9117 30.8494C20.0986 30.8603 20.299 30.8296 20.4614 30.7739C20.6235 30.7181 20.7471 30.6368 20.8636 30.4735C20.9802 30.3102 21.0897 30.0646 21.0917 29.7995C21.0941 29.5345 20.9885 29.2498 20.8159 29.0596C20.6429 28.8694 20.4025 28.7733 20.2105 28.7029C20.0185 28.6325 19.8747 28.588 19.779 28.5101C19.6837 28.4322 19.6363 28.3211 19.6533 28.221C19.6703 28.1208 19.7517 28.0314 19.8399 27.9889C19.9281 27.9464 20.0228 27.9502 20.092 27.9747C20.1612 27.999 20.2043 28.0439 20.2318 28.1119C20.2599 28.1797 20.2716 28.2703 20.2621 28.3567H20.8817V28.3569ZM25.8442 28.3569H25.0349C24.9526 28.2495 24.8511 28.1585 24.7354 28.0884C24.6227 28.0204 24.4976 27.9752 24.3675 27.9556C24.2373 27.9359 24.1045 27.942 23.9767 27.9737C23.8477 28.0061 23.7262 28.0633 23.619 28.1421C23.5088 28.2236 23.4149 28.325 23.342 28.4411C23.1931 28.6762 23.1364 28.9746 23.1862 29.2536C23.2107 29.3935 23.2604 29.5278 23.3321 29.6472C23.4037 29.7665 23.4963 29.8705 23.6036 29.9525C23.8142 30.1154 24.0808 30.1881 24.3449 30.1546C24.4759 30.1377 24.6023 30.0951 24.7168 30.0294C24.8334 29.9619 24.9363 29.873 25.0199 29.7674H25.8347C25.7516 29.9759 25.6319 30.168 25.4814 30.3345C25.3347 30.4965 25.159 30.6297 24.9632 30.727C24.5782 30.9184 24.1344 30.9545 23.7236 30.8278C23.5172 30.7634 23.3248 30.6608 23.1564 30.5253C22.9832 30.3855 22.837 30.2152 22.7249 30.0229C22.4972 29.6362 22.4111 29.1511 22.4948 28.6987C22.5355 28.4754 22.6161 28.2612 22.7328 28.0666C22.8473 27.8759 22.9955 27.7077 23.1702 27.5701C23.5226 27.2933 23.9579 27.1727 24.3704 27.2119C24.5814 27.2314 24.7892 27.2915 24.9814 27.3892C25.1736 27.4869 25.3493 27.6225 25.4968 27.7878C25.6443 27.9531 25.7628 28.1477 25.8442 28.3569ZM27.8632 30.0767V30.8508H26.2126V27.2737H26.8831L26.8876 30.0828L27.8632 30.0767ZM28.173 29.492V27.3425H28.8435L28.8477 29.5838C28.8477 29.7698 28.954 29.9636 29.1019 30.0563C29.25 30.1489 29.446 30.1402 29.599 30.0451C29.7519 29.9503 29.8879 29.7712 29.8883 29.5838L29.8924 27.3425H30.5629V29.4578C30.5629 29.9175 30.4328 30.4332 30.0293 30.6932C29.6259 30.953 29.0161 30.9526 28.6288 30.6946C28.2414 30.4367 28.173 29.9316 28.173 29.492ZM33.0839 29.5049C33.0238 29.211 32.8314 28.9985 32.5922 28.9073C32.7353 28.8215 32.8368 28.6754 32.8763 28.4472C32.9153 28.2189 32.8925 27.9084 32.7436 27.6777C32.5951 27.4473 32.3211 27.2737 32.0421 27.2737H31.0102V30.8162H32.0421C32.3539 30.8162 32.6768 30.6877 32.8743 30.431C33.0717 30.1742 33.1442 29.7987 33.0839 29.5049ZM31.702 28.0166H31.9964C32.0785 28.0166 32.1706 28.033 32.2177 28.1236C32.2647 28.2141 32.2647 28.3604 32.2173 28.4498C32.17 28.5392 32.0781 28.5512 31.9964 28.5512H31.702V28.0166ZM32.3662 29.8894C32.3094 29.9988 32.1991 30.0142 32.1008 30.0142L31.7024 30.014V29.3589H32.1008C32.1999 29.3589 32.3102 29.3799 32.3666 29.4906C32.4231 29.6012 32.4231 29.7799 32.3662 29.8894ZM4.18795 35.317V31.7682H3.43286V35.317H4.18795ZM6.76926 34.0023V31.7682H7.52414V35.317H6.68306L5.56378 33.1167V35.317H4.80869V31.7682H5.63237L6.76926 34.0023ZM7.76066 32.4328V31.7621H9.54904V32.4328H9.03736V35.317H8.28247V32.4328H7.76066ZM11.6783 34.554L11.6814 35.3221H9.84141V31.7793H11.6814L11.6783 32.5231H10.6022V33.161H11.6783V33.9161H10.6022V34.554H11.6783ZM12.9067 35.317H12.1862L12.1828 31.768H13.4153C13.5914 31.768 13.7684 31.8058 13.9467 31.9171C14.1249 32.0284 14.3046 32.2046 14.3926 32.4444C14.4806 32.6839 14.4772 32.9872 14.4248 33.2209C14.3723 33.4546 14.271 33.6191 14.1468 33.7524C14.0263 33.8832 13.8786 33.9859 13.7142 34.0535L14.5917 35.3199H13.8024L13.057 34.2556L12.9065 34.2526V35.317H12.9067ZM12.9067 33.3674H13.4012C13.5199 33.3674 13.6365 33.2937 13.6945 33.1586C13.7526 33.0232 13.7526 32.8235 13.6945 32.6872C13.6367 32.5506 13.521 32.4715 13.401 32.4715H12.9065V33.3674H12.9067ZM16.743 34.0023V31.7682H17.4979V35.317H16.6572L15.5376 33.1167V35.317H14.7827V31.7682H15.6066L16.743 34.0023ZM18.8713 34.3418L18.5642 35.3168H17.8093L18.927 31.768H19.7407L20.8582 35.3168H20.1035L19.7964 34.3418H18.8713ZM19.3338 32.8735L19.0989 33.6197H19.5688L19.3338 32.8735ZM20.9848 32.4328V31.7621H22.7734V32.4328H22.2615V35.317H21.5064V32.4328H20.9848ZM23.9295 35.317V31.7682H23.1744V35.317H23.9295ZM27.8446 32.9087C27.7857 32.7193 27.6975 32.5374 27.5834 32.3746C27.4693 32.2117 27.3297 32.068 27.1747 31.9527C26.6929 31.6013 26.1452 31.5228 25.6109 31.6927C25.4319 31.752 25.2636 31.8398 25.1125 31.9527C24.9547 32.0707 24.8167 32.2131 24.7036 32.3746C24.4757 32.7026 24.354 33.0928 24.355 33.4922C24.355 33.6903 24.3844 33.8898 24.4428 34.0812C24.5016 34.273 24.5896 34.4546 24.7036 34.6196C24.8164 34.7815 24.954 34.9246 25.1115 35.0435C25.5929 35.3965 26.1418 35.4754 26.6772 35.3047C26.8564 35.245 27.0248 35.1568 27.1759 35.0435C27.3333 34.9246 27.4708 34.7815 27.5834 34.6196C27.8177 34.2837 27.9332 33.8789 27.932 33.4922C27.932 33.2945 27.9031 33.0979 27.8446 32.9087ZM27.0049 34.1716C26.9375 34.2686 26.8552 34.3544 26.7611 34.4258C26.6708 34.4939 26.57 34.5469 26.4627 34.5826C26.1426 34.6851 25.8142 34.6376 25.5265 34.4258C25.4322 34.3546 25.3499 34.2688 25.2827 34.1716C25.2142 34.0727 25.1616 33.9637 25.1267 33.8485C25.0227 33.4932 25.0711 33.1351 25.2827 32.8245C25.3511 32.7268 25.4345 32.6406 25.5269 32.5712C25.6173 32.5034 25.7181 32.4508 25.8253 32.4152C26.1446 32.3133 26.4722 32.3604 26.7603 32.5712C26.8528 32.6406 26.9365 32.7268 27.0049 32.8245C27.0729 32.9221 27.1259 33.0311 27.1609 33.1448C27.2665 33.4983 27.2131 33.8653 27.0049 34.1716ZM30.2596 34.0023V31.7682H31.0147V35.317H30.1738L29.0543 33.1167V35.317H28.299V31.7682H29.1229L30.2596 34.0023ZM32.4393 34.3418L32.1321 35.3168H31.3774L32.4949 31.768H33.3085L34.4263 35.3168H33.6712L33.3641 34.3418H32.4393ZM32.902 32.8735L32.6669 33.6197H33.1367L32.902 32.8735ZM36.41 35.3221V34.6514H35.6231L35.6189 31.7621H34.8625V35.3221H36.41Z" fill="#9E9E9E"/>
</g>
<defs>
<linearGradient id="paint0_linear_1202_478" x1="19.5267" y1="2.37927" x2="19.5267" y2="24.5003" gradientUnits="userSpaceOnUse">
<stop stop-color="white"/>
<stop offset="1" stop-color="white" stop-opacity="0.75"/>
</linearGradient>
<linearGradient id="paint1_linear_1202_478" x1="13.7199" y1="8.33508" x2="13.7199" y2="18.4438" gradientUnits="userSpaceOnUse">
<stop stop-color="white"/>
<stop offset="1" stop-color="white" stop-opacity="0.75"/>
</linearGradient>
<clipPath id="clip0_1202_478">
<rect width="39" height="39" fill="white"/>
</clipPath>
</defs>
</svg>
