<svg width="52" height="24" viewBox="0 0 52 24" fill="none" xmlns="http://www.w3.org/2000/svg">
<path d="M10.7178 7.35186C11.2181 7.18892 11.7518 7.10202 12.3055 7.10202C14.7293 7.10202 16.7528 8.78356 17.2153 11.0191L20.6509 10.3347C19.8637 6.53716 16.4259 3.6781 12.3055 3.6781C11.3604 3.6781 10.4554 3.82801 9.60596 4.10609L10.7178 7.35186Z" fill="white"/>
<path d="M6.66423 18.2276L8.98796 15.6619C7.95173 14.7646 7.29798 13.4546 7.29798 11.9946C7.29798 10.5369 7.95173 9.22682 8.98796 8.33173L6.66423 5.76379C4.90309 7.28891 3.79126 9.51576 3.79126 11.9946C3.79126 14.4757 4.90309 16.7025 6.66423 18.2276Z" fill="white"/>
<path d="M17.2153 12.9766C16.7506 15.2099 14.7293 16.8893 12.3077 16.8893C11.7518 16.8893 11.2159 16.8024 10.7178 16.6373L9.60596 19.8874C10.4554 20.1633 11.3627 20.3132 12.3077 20.3132C16.4237 20.3132 19.8593 17.4585 20.6509 13.6653L17.2153 12.9766Z" fill="white"/>
<path d="M23.6552 15.7683C23.5418 15.5901 23.3906 15.3055 23.2972 15.0948C22.7524 13.8608 22.7279 12.5833 23.186 11.358C23.6907 10.0132 24.6558 8.98561 25.9033 8.45986C27.471 7.80158 29.2032 7.92976 30.7064 8.80094C31.6604 9.33539 32.3363 10.161 32.85 11.3298C32.9145 11.4797 32.9723 11.6383 33.0301 11.7751L23.6552 15.7683ZM26.7861 10.4434C25.672 10.9105 25.0983 11.9316 25.2184 13.1265L29.9326 11.1429C29.1209 10.2131 28.0669 9.90459 26.7861 10.4434ZM30.5196 14.758C30.5174 14.758 30.5174 14.7602 30.5174 14.7602L30.4195 14.695C30.1371 15.1404 29.6991 15.5032 29.1454 15.7378C28.0914 16.1854 27.1152 16.0702 26.4125 15.4685L26.348 15.564C26.348 15.564 26.348 15.5619 26.3458 15.5619L25.1495 17.3108C25.4474 17.5128 25.7654 17.6823 26.099 17.8191C27.4198 18.3558 28.7718 18.3297 30.1038 17.7648C31.0666 17.3564 31.8227 16.735 32.3386 15.9464L30.5196 14.758ZM36.3056 5.88757V15.6075L37.8533 16.2202L36.9749 18.2232L35.2671 17.528C34.8847 17.3651 34.6223 17.1174 34.4266 16.8372C34.2376 16.5526 34.0975 16.1593 34.0975 15.6336V5.88757H36.3056ZM40.3126 13.133C40.3126 12.3052 40.6884 11.5622 41.2799 11.0582L39.6922 9.32887C38.616 10.2587 37.9378 11.6165 37.9378 13.1286C37.9355 14.6429 38.6137 16.0029 39.6878 16.9327L41.2732 15.2034C40.684 14.6972 40.3126 13.9585 40.3126 13.133ZM43.1322 15.8899C42.8209 15.8899 42.5185 15.8378 42.2383 15.7465L41.48 17.9473C41.9982 18.1168 42.5519 18.2102 43.13 18.2102C45.6427 18.2124 47.7397 16.47 48.2266 14.1562L45.8962 13.6913C45.6316 14.9492 44.4953 15.8921 43.1322 15.8899ZM43.1389 8.05576C42.563 8.05576 42.0093 8.14701 41.4912 8.3143L42.2428 10.5172C42.5252 10.426 42.8254 10.376 43.1367 10.376C44.502 10.3782 45.6405 11.3254 45.8985 12.5855L48.2289 12.1249C47.7508 9.80683 45.6539 8.05794 43.1389 8.05576Z" fill="white"/>
</svg>
